<svg width="229" height="230" fill="none" xmlns="http://www.w3.org/2000/svg"><path d="M137.038 56.267c1.821-2.037 5.208-3.013 10.628-3.013h17.826c3.218 0 5.843-2.632 5.843-5.858V16.115c0-3.226-2.625-5.858-5.843-5.858l-26.464-.042c-15.031 0-27.776 4.923-36.837 14.219-9.02 9.295-13.804 22.368-13.804 37.818v21.52H63.49c-3.218 0-5.843 2.63-5.843 5.856v33.659c0 3.226 2.625 5.857 5.843 5.857h24.897v83.149c0 3.226 2.625 5.857 5.843 5.857h34.721c3.218 0 5.843-2.631 5.843-5.857v-83.149h29.427c3.218 0 5.844-2.631 5.844-5.857V89.628a5.909 5.909 0 00-3.007-5.135c-.847-.467-1.863-.722-2.921-.722h-29.343V65.775c0-4.881.677-7.768 2.244-9.508zm-3.26 30.9h32.942v38.582h-32.9a2.37 2.37 0 00-2.371 2.377v86.671H91.817v-86.671a2.37 2.37 0 00-2.371-2.377H61.034V87.167h28.412a2.37 2.37 0 002.37-2.377V62.252c0-14.559 4.404-26.783 12.746-35.399 8.383-8.659 20.324-13.243 34.466-13.243l26.464.043h2.456v36.163h-20.282c-4.065 0-9.866.424-13.169 4.16-2.709 3.098-3.091 7.512-3.091 11.799V84.79a2.37 2.37 0 002.372 2.377z" fill="#000"/></svg>