<svg width="644" height="643" fill="none" xmlns="http://www.w3.org/2000/svg"><g opacity=".05" fill="#000"><path d="M358.684 10.384L326.01 9.15l-.462 12.333 30.755 1.161-.325 8.63-30.755-1.16-.707 18.703-12.058-.454L314.276 0l44.733 1.689-.325 8.695zM373.138 53.703l-11.964-2.014 8.039-47.727 11.964 2.013-8.039 47.728zM421.407 66.865l-37.322-11.337 14.072-46.306 11.611 3.529-11.481 37.784 25.711 7.815-2.591 8.515zM431.51 44.134c2.085-4.012 4.64-7.151 7.671-9.417 3.03-2.266 6.234-3.608 9.626-4.041 3.392-.433 6.819-.289 10.283.433 3.464.714 6.92 1.97 10.37 3.76 3.528 1.832 6.602 3.918 9.229 6.256a31.923 31.923 0 016.502 8.01c1.71 3.002 2.54 6.393 2.482 10.167-.057 3.782-1.14 7.7-3.247 11.756-3.745 7.223-8.984 11.726-15.702 13.515-6.726 1.79-14.259.513-22.616-3.824-8.356-4.337-13.783-9.778-16.28-16.33-2.504-6.545-1.941-13.307 1.682-20.285zm10.911 6.054a18.636 18.636 0 00-1.884 5.708c-.303 1.978-.267 4.005.123 6.09.39 2.08 1.378 4.092 2.973 6.026 1.595 1.934 3.709 3.587 6.35 4.958 2.677 1.393 5.232 2.165 7.678 2.323 2.439.16 4.489-.086 6.141-.75a16.473 16.473 0 004.626-2.814c1.429-1.213 2.468-2.28 3.132-3.204a23.387 23.387 0 001.652-2.656c2.151-4.135 2.648-8.4 1.501-12.78-1.147-4.38-4.156-7.836-9.027-10.362-4.951-2.569-9.526-3.002-13.733-1.299-4.207 1.703-7.382 4.626-9.532 8.76zM518.76 131.608l-9.056-7.764-.591-45.217-22.096 25.755-8.739-7.498 31.513-36.737 9.208 7.901.526 44.979 22.003-25.654 8.738 7.498-31.506 36.737zM553.622 176.652l-28.035-37.077 38.606-29.189 27.205 35.979-6.942 5.254-19.887-26.303-8.696 6.574 19.231 25.43-6.891 5.21-19.224-25.423-9.186 6.949 20.717 27.393-6.898 5.203zM579.925 231.249l-4.994-10.831 18.308-41.349-30.821 14.202-4.82-10.457 43.954-20.255 5.08 11.019-18.272 41.103 30.691-14.144 4.82 10.464-43.946 20.248zM594.242 294.586l-3.385-15.89 16.439-22.847-7.7-5.859-14.216 3.03-2.518-11.798 47.338-10.088 2.511 11.798-20.718 4.416 25.632 18.647 3.255 15.284-24.896-18.805-21.742 32.112zM617.406 289.787c4.524-.072 8.5.685 11.935 2.273 3.428 1.587 6.141 3.774 8.125 6.552 1.985 2.778 3.486 5.86 4.503 9.251 1.018 3.392 1.552 7.022 1.617 10.911.065 3.976-.311 7.671-1.126 11.091a31.831 31.831 0 01-3.962 9.526c-1.825 2.929-4.416 5.268-7.771 7.014-3.356 1.746-7.318 2.655-11.885 2.728-8.133.129-14.584-2.339-19.354-7.397-4.77-5.066-7.224-12.304-7.382-21.721-.152-9.417 2.056-16.777 6.639-22.081 4.582-5.304 10.802-8.025 18.661-8.147zm-.138 12.477a18.452 18.452 0 00-5.91 1.053 17.9 17.9 0 00-5.296 3.002c-1.646 1.328-2.945 3.153-3.89 5.477-.945 2.324-1.393 4.972-1.342 7.938.05 3.016.584 5.636 1.602 7.858 1.017 2.223 2.208 3.904 3.579 5.052a16.626 16.626 0 004.669 2.735c1.746.678 3.182 1.089 4.308 1.233a21.75 21.75 0 003.125.188c4.661-.072 8.645-1.66 11.957-4.755 3.312-3.096 4.921-7.382 4.828-12.867-.094-5.578-1.884-9.807-5.384-12.7-3.507-2.879-7.584-4.287-12.246-4.214zM607.952 400.05l-12.253-7.541.498-2.093 11.813-1.335-9.951-6.516.512-2.15 14.324-1.177-.476 2.014-12.036.815 10.232 6.762-.397 1.674-12.116 1.443 10.327 6.112-.477 1.992zM590.323 410.694l3.832-12.528 13.061 3.998-3.68 12.044-1.609-.491 3.117-10.196-3.889-1.191-3.038 9.937-1.552-.477 3.038-9.936-4.402-1.35-3.269 10.68-1.609-.49zM589.45 413.263l12.802 4.769-3.14 8.415c-1.147 3.066-2.821 4.192-5.036 3.369a3.423 3.423 0 01-.888-.476 2.607 2.607 0 01-.57-.555 2.456 2.456 0 01-.31-.578 2.215 2.215 0 01-.145-.519c-.021-.137-.029-.275-.043-.419-.007-.144-.014-.216-.007-.231-.484.635-1.083 1.075-1.797 1.321-.714.252-1.508.209-2.396-.116a3.673 3.673 0 01-1.703-1.255 3.448 3.448 0 01-.599-1.299 3.62 3.62 0 01-.014-1.501c.094-.534.195-.974.296-1.328.101-.354.259-.808.476-1.393l3.074-8.204zm.801 2.388l-2.583 6.928c-.462 1.248-.484 2.215-.051 2.915.238.404.621.707 1.148.902.505.188.981.231 1.421.115.505-.129.888-.382 1.162-.764.274-.383.527-.888.758-1.516l2.583-6.927-4.438-1.653zm5.917 2.201l-2.496 6.689c-.138.361-.231.657-.296.874-.058.216-.08.49-.058.815.022.325.123.621.303.88.238.354.584.614 1.032.78.693.26 1.32.166 1.898-.267.426-.325.815-.967 1.176-1.934l2.374-6.365-3.933-1.472zM572.182 508.191l17.434-27.667-10.442-6.581-16.409 26.043-7.31-4.603 16.409-26.044-15.832-9.972 6.43-10.211 40.951 25.798-23.864 37.877-7.367-4.64zM527.427 499.012l7.736-9.345 37.279 30.864-7.736 9.345-37.279-30.864zM491.902 534.242l28.468-26.664 33.086 35.323-8.854 8.299-26.996-28.822-19.614 18.373-6.09-6.509zM506.565 554.331c2.446 3.811 3.89 7.592 4.344 11.344.455 3.753.022 7.209-1.291 10.363-1.314 3.153-3.147 6.054-5.492 8.702-2.345 2.649-5.152 5.023-8.421 7.115-3.348 2.151-6.69 3.775-10.023 4.886-3.334 1.104-6.726 1.66-10.182 1.645-3.457-.007-6.805-.981-10.06-2.915-3.247-1.934-6.112-4.821-8.58-8.667-4.394-6.848-5.693-13.631-3.896-20.349 1.796-6.719 6.653-12.622 14.576-17.709 7.924-5.087 15.349-7.079 22.269-5.982 6.928 1.097 12.513 4.95 16.756 11.567zm-10.687 6.452a18.439 18.439 0 00-4.012-4.474c-1.566-1.249-3.341-2.223-5.34-2.923-1.999-.7-4.236-.844-6.704-.418-2.475.418-4.957 1.428-7.461 3.038-2.54 1.63-4.482 3.463-5.838 5.498-1.357 2.035-2.158 3.94-2.411 5.701a16.484 16.484 0 00.138 5.412c.339 1.84.75 3.276 1.219 4.308a23.215 23.215 0 001.479 2.757c2.519 3.925 5.961 6.48 10.334 7.663 4.373 1.184 8.869.296 13.48-2.662 4.69-3.01 7.346-6.769 7.966-11.265.621-4.503-.332-8.717-2.85-12.635zM387.246 586.378l11.25-3.968 39.48 22.052-11.294-31.996 10.861-3.832 16.106 45.642-11.445 4.041-39.241-21.995 11.242 31.874-10.86 3.832-16.099-45.65zM330.83 593.963l46.133-5.687 5.917 48.038-44.769 5.513-1.068-8.637 32.725-4.034-1.335-10.817-31.635 3.897-1.054-8.573 31.636-3.897-1.407-11.43-34.089 4.199-1.054-8.572zM270.373 589.489l11.878 1.075 26.7 36.499 3.066-33.793 11.467 1.039-4.373 48.197-12.087-1.097-26.505-36.341-3.053 33.656L266 637.685l4.373-48.196zM208.299 570.33l15.465 4.986 11.61 25.639 8.92-3.752 4.459-13.834 11.481 3.702-14.851 46.061-11.481-3.702 6.502-20.162-28.944 12.924-14.872-4.799 28.713-12.209-17.002-34.854zM200.275 592.923c-2.251 3.926-4.936 6.957-8.06 9.086-3.125 2.136-6.387 3.341-9.793 3.629-3.406.289-6.819 0-10.254-.866-3.428-.858-6.834-2.258-10.204-4.192-3.449-1.977-6.436-4.193-8.955-6.639-2.518-2.446-4.575-5.203-6.155-8.277-1.588-3.067-2.266-6.495-2.05-10.269.217-3.774 1.465-7.642 3.738-11.61 4.049-7.058 9.468-11.337 16.258-12.838 6.791-1.508 14.267.087 22.435 4.77 8.169 4.683 13.358 10.348 15.58 17.001 2.223 6.654 1.371 13.386-2.54 20.205zm-10.651-6.509a18.41 18.41 0 002.122-5.621c.389-1.963.433-3.99.137-6.09-.296-2.093-1.205-4.142-2.721-6.141-1.508-1.999-3.557-3.738-6.134-5.218-2.612-1.501-5.137-2.381-7.569-2.648-2.432-.26-4.489-.101-6.17.491a16.607 16.607 0 00-4.741 2.612c-1.479 1.155-2.562 2.179-3.262 3.067a22.95 22.95 0 00-1.761 2.583c-2.316 4.041-2.994 8.277-2.035 12.701.967 4.423 3.825 8.002 8.58 10.73 4.835 2.778 9.389 3.399 13.668 1.876 4.272-1.515 7.57-4.3 9.886-8.342zM110.167 529.421l12.657-6.833 1.559 1.472-4.756 10.896 10.622-5.354 1.602 1.515-6.148 12.989-1.508-1.421 5.318-10.818-10.975 5.478-1.249-1.184 4.813-11.214-10.456 5.881-1.479-1.407zM109.755 508.848l8.934 9.583-9.987 9.323-8.595-9.215 1.234-1.147 7.274 7.801 2.973-2.771-7.086-7.599 1.191-1.111 7.086 7.598 3.37-3.139-7.613-8.168 1.219-1.155zM107.973 506.813l-10.521 8.717-5.73-6.913c-2.092-2.526-2.222-4.539-.404-6.047.282-.231.563-.404.852-.534.288-.123.548-.195.765-.217.216-.021.44-.014.656.022.224.036.397.079.527.13.13.05.253.108.383.173.13.065.194.101.202.108a3.803 3.803 0 01-.253-2.215c.137-.743.57-1.414 1.299-2.013a3.708 3.708 0 011.934-.852 3.36 3.36 0 011.421.13c.455.144.895.382 1.314.736.418.354.75.657.996.917.252.259.57.627.967 1.111l5.592 6.747zm-7.332 3.529l-4.553-5.499a13.628 13.628 0 00-.606-.693c-.159-.166-.382-.31-.678-.454a1.687 1.687 0 00-.91-.174 2.126 2.126 0 00-1.19.505c-.57.47-.808 1.061-.715 1.776.072.526.433 1.19 1.09 1.984l4.33 5.232 3.232-2.677zm4.864-4.027l-4.712-5.694c-.844-1.024-1.681-1.522-2.497-1.5-.469 0-.916.18-1.356.548-.419.346-.686.736-.809 1.176-.137.498-.108.96.087 1.386.195.425.505.895.93 1.414l4.713 5.694 3.644-3.024zM34.267 444.545l15.313 28.893 10.904-5.78-14.411-27.198 7.635-4.041 14.41 27.198 16.54-8.76 5.65 10.658-42.763 22.666-20.963-39.552 7.685-4.084zM64.546 410.326l4.243 11.365-45.346 16.915L19.2 427.24l45.346-16.914zM51.803 361.941l8.84 37.993-47.137 10.969-2.75-11.82 38.463-8.948-6.09-26.173 8.674-2.021zM27.087 364.582c-4.517.21-8.515-.433-11.993-1.919-3.478-1.487-6.25-3.587-8.32-6.307-2.071-2.721-3.666-5.759-4.778-9.114-1.11-3.356-1.76-6.978-1.94-10.853-.181-3.969.079-7.678.793-11.12a31.9 31.9 0 013.673-9.641c1.74-2.988 4.258-5.398 7.556-7.245 3.305-1.84 7.237-2.872 11.798-3.081 8.125-.376 14.649 1.897 19.563 6.819 4.914 4.921 7.591 12.087 8.024 21.49.433 9.402-1.558 16.828-5.975 22.269-4.416 5.441-10.55 8.342-18.4 8.702zm-.23-12.476a18.387 18.387 0 005.88-1.234 18.148 18.148 0 005.21-3.154c1.61-1.378 2.85-3.24 3.724-5.592.873-2.353 1.241-5.008 1.111-7.974-.137-3.017-.75-5.614-1.833-7.808-1.082-2.194-2.323-3.839-3.73-4.943-1.4-1.104-2.98-1.963-4.749-2.598-1.768-.628-3.21-.996-4.337-1.104a22.31 22.31 0 00-3.124-.094c-4.655.217-8.595 1.92-11.806 5.109-3.218 3.19-4.698 7.527-4.445 13.004.26 5.571 2.18 9.749 5.759 12.534 3.564 2.778 7.685 4.063 12.34 3.854zM58.94 245.213l-2.166 11.726-38.8 23.229 33.367 6.162-2.093 11.322-47.59-8.789 2.2-11.935 38.628-23.049-33.237-6.141 2.092-11.322 47.598 8.797zM80.487 192.535l-18.084 42.82-44.581-18.834 17.55-41.558 8.016 3.385-12.83 30.38 10.045 4.243 12.405-29.37 7.959 3.363-12.397 29.369 10.6 4.482 13.364-31.643 7.953 3.363zM114.634 142.469l-6.885 9.742-44.963 4.813 27.71 19.592-6.647 9.402-39.515-27.941 7.007-9.907 44.733-4.727-27.595-19.513 6.646-9.402 39.509 27.941zM162.268 98.255l-12.044 10.911-28.013-2.742-1.206 9.598 9.757 10.773-8.941 8.097L89.326 99.02l8.941-8.096 14.223 15.702 3.255-31.535L127.327 64.6l-3.767 30.972 38.708 2.684zM146.659 80.042c-2.28-3.904-3.572-7.743-3.868-11.517-.296-3.767.282-7.202 1.725-10.298 1.45-3.095 3.399-5.917 5.852-8.464 2.454-2.548 5.362-4.8 8.717-6.762 3.435-2.006 6.841-3.492 10.218-4.46a31.886 31.886 0 0110.24-1.219c3.449.151 6.762 1.263 9.929 3.334 3.168 2.07 5.903 5.073 8.205 9.02 4.106 7.021 5.116 13.855 3.038 20.494-2.078 6.639-7.18 12.332-15.305 17.08-8.126 4.749-15.63 6.43-22.5 5.045-6.87-1.386-12.289-5.47-16.251-12.253zm10.94-6.004a18.441 18.441 0 003.817 4.633c1.508 1.313 3.247 2.366 5.21 3.146 1.963.78 4.193 1.017 6.682.7 2.49-.318 5.015-1.22 7.577-2.72 2.605-1.523 4.626-3.27 6.062-5.247 1.436-1.977 2.323-3.846 2.648-5.592.325-1.754.354-3.558.094-5.412-.267-1.855-.613-3.306-1.039-4.359a22.357 22.357 0 00-1.364-2.814c-2.353-4.027-5.686-6.719-10.009-8.09-4.322-1.364-8.847-.67-13.581 2.1-4.813 2.815-7.627 6.451-8.428 10.918-.794 4.467-.015 8.718 2.331 12.737zM246.646 33.555l-.404 14.382-2.057.613-7.064-9.561-.671 11.878-2.115.635-8.176-11.813 1.985-.592 6.711 10.009.743-12.239 1.653-.49 7.31 9.77.13-11.993 1.955-.599zM264.679 43.499l-12.765 2.944-3.067-13.314 12.275-2.828.375 1.638-10.391 2.395.916 3.962 10.124-2.338.368 1.588-10.124 2.338 1.032 4.488 10.882-2.511.375 1.638zM267.349 42.972L265.076 29.5l8.854-1.494c3.233-.541 5.045.346 5.434 2.677.058.354.072.693.029 1.003-.036.31-.101.57-.195.772a2.827 2.827 0 01-.721.945 5.9 5.9 0 01-.34.246c-.115.08-.18.123-.194.123.786.1 1.472.397 2.042.895.57.497.938 1.205 1.097 2.128.122.75.05 1.45-.238 2.1a3.575 3.575 0 01-.823 1.17 3.697 3.697 0 01-1.292.764c-.512.18-.945.318-1.291.404-.354.087-.838.18-1.444.282l-8.645 1.457zm.614-8.11l7.043-1.184c.382-.065.685-.123.902-.18.216-.058.462-.181.736-.361.274-.18.476-.419.606-.7.18-.383.238-.808.159-1.285-.123-.721-.513-1.227-1.177-1.508-.49-.202-1.248-.224-2.265-.05l-6.697 1.125.693 4.142zm1.046 6.22l7.288-1.227c1.314-.224 2.158-.693 2.548-1.414.231-.405.303-.888.209-1.45-.087-.535-.296-.968-.613-1.293-.361-.368-.78-.577-1.242-.627-.469-.044-1.032-.015-1.688.1l-7.289 1.227.787 4.684z"/></g></svg>