<svg width="194" height="194" fill="none" xmlns="http://www.w3.org/2000/svg"><path d="M141.419 4.299H52.91c-26.537 0-48.099 21.561-48.099 48.099v88.509c0 26.537 21.562 48.099 48.1 48.099h88.508c26.537 0 48.099-21.562 48.099-48.099V52.398c0-26.538-21.562-48.1-48.099-48.1zm45.083 136.608c0 24.841-20.204 45.083-45.083 45.083H52.91c-24.841 0-45.083-20.242-45.083-45.083V52.398c0-24.841 20.242-45.084 45.083-45.084h88.509c24.841 0 45.083 20.243 45.083 45.084v88.509z" fill="#000"/><path d="M97.165 48.025c-26.802 0-48.627 21.826-48.627 48.627 0 26.802 21.825 48.627 48.627 48.627 26.801 0 48.627-21.825 48.627-48.627 0-26.801-21.826-48.627-48.627-48.627zm0 94.239c-25.143 0-45.612-20.469-45.612-45.612 0-25.142 20.469-45.611 45.612-45.611 25.142 0 45.611 20.469 45.611 45.611 0 25.143-20.469 45.612-45.611 45.612zM151.182 29.291c-6.296 0-11.46 5.127-11.46 11.46 0 6.332 5.127 11.459 11.46 11.459 6.332 0 11.459-5.127 11.459-11.46 0-6.332-5.127-11.459-11.459-11.459zm0 19.865c-4.637 0-8.444-3.77-8.444-8.406 0-4.636 3.769-8.443 8.444-8.443 4.636 0 8.443 3.77 8.443 8.443 0 4.637-3.769 8.406-8.443 8.406z" fill="#000"/></svg>