<svg width="211" height="22" fill="none" xmlns="http://www.w3.org/2000/svg"><path d="M190.25 3.234L187.687 11h-1.221l-2.288-6.358L181.879 11h-1.254l-2.53-7.766h1.177l2.024 6.545 2.398-6.545h.979l2.387 6.512 2.024-6.512h1.166zM198.649 11h-7.447V3.234h7.161v.957h-6.061v2.31h5.907v.924h-5.907v2.618h6.347V11zm1.726 0V3.234h5.104c1.863 0 2.794.671 2.794 2.013 0 .205-.025.396-.077.572a1.38 1.38 0 01-.187.407 1.303 1.303 0 01-.495.462 4.988 4.988 0 01-.209.11.857.857 0 01-.121.044c.433.132.785.363 1.056.693.279.33.418.763.418 1.298 0 .433-.11.818-.33 1.155a2.054 2.054 0 01-.572.583c-.227.147-.495.25-.803.308-.3.051-.553.084-.759.099-.205.015-.484.022-.836.022h-4.983zm1.111-4.488h4.059c.22 0 .393-.004.517-.011.132-.015.283-.059.451-.132.169-.08.305-.194.407-.341.14-.198.209-.433.209-.704 0-.418-.172-.737-.517-.957-.256-.161-.678-.242-1.265-.242h-3.861v2.387zm0 3.586h4.202c.756 0 1.276-.183 1.562-.55.169-.205.253-.47.253-.792 0-.308-.073-.568-.22-.781a1.098 1.098 0 00-.638-.462 3.533 3.533 0 00-.957-.11h-4.202v2.695z" fill="#fff"/><path fill-rule="evenodd" clip-rule="evenodd" d="M4.128 4.056H0V21h4.128V4.056zm3 10.392H15v-3.024H7.128v3.024zm0-7.344h8.544V4.056H7.128v3.048zm40.535-3.072a13.56 13.56 0 012.465-.444v3.119c-1.25.239-2.255.803-3.017 1.693-1.024 1.2-1.536 2.616-1.536 4.248 0 .72.112 1.416.336 2.088.224.656.56 1.28 1.008 1.872.464.576 1.096 1.04 1.896 1.392.41.169.847.295 1.313.379v3.11c-2.576-.218-4.638-1.013-6.185-2.385-1.824-1.632-2.736-3.824-2.736-6.576 0-1.584.288-2.968.864-4.152.576-1.2 1.352-2.136 2.328-2.808.992-.688 2.08-1.2 3.264-1.536zM54.36 18c-.378.162-.789.285-1.231.37v3.123c2.587-.214 4.638-1.01 6.151-2.389 1.808-1.648 2.712-3.896 2.712-6.744 0-1.6-.296-2.992-.888-4.176-.592-1.184-1.4-2.104-2.424-2.76a10.96 10.96 0 00-3.312-1.44c-.709-.182-1.455-.31-2.239-.383V6.72c1.2.24 2.179.785 2.935 1.633 1.072 1.168 1.608 2.568 1.608 4.2 0 .336-.032.704-.096 1.104-.048.384-.2.88-.456 1.488a5.624 5.624 0 01-.984 1.632c-.4.464-.992.872-1.776 1.224zM93.128 4.056h-4.09V21h4.09V4.056zm3 16.944h9.183v-3.024h-9.183V21zm0-7.056h8.319V10.92h-8.319v3.024zm0-6.84h8.702V4.056h-8.702v3.048zm61.645-3.072a13.496 13.496 0 012.355-.434v3.13c-1.199.251-2.168.808-2.907 1.672-1.024 1.2-1.536 2.616-1.536 4.248 0 .72.112 1.416.336 2.088.224.656.56 1.28 1.008 1.872.464.576 1.096 1.04 1.896 1.392.377.155.778.275 1.203.358v3.122c-2.525-.231-4.55-1.023-6.075-2.376-1.824-1.632-2.736-3.824-2.736-6.576 0-1.584.288-2.968.864-4.152.576-1.2 1.352-2.136 2.328-2.808.992-.688 2.08-1.2 3.264-1.536zM164.469 18c-.41.176-.857.305-1.341.39v3.112c2.639-.2 4.726-1 6.261-2.398 1.808-1.648 2.712-3.896 2.712-6.744 0-1.6-.296-2.992-.888-4.176-.592-1.184-1.4-2.104-2.424-2.76a10.96 10.96 0 00-3.312-1.44 14.418 14.418 0 00-2.349-.393v3.107c1.25.229 2.265.78 3.045 1.654 1.072 1.168 1.608 2.568 1.608 4.2 0 .336-.032.704-.096 1.104-.048.384-.2.88-.456 1.488a5.624 5.624 0 01-.984 1.632c-.4.464-.992.872-1.776 1.224zM18 21h4.248V4.056H18V21zm22.656 0H27V4.056h4.248V17.88h9.408V21zm43.523 0h-4.176L69.54 9.12V21h-4.032V4.056h4.248l10.392 11.832V4.056h4.032V21zm43.547 0h-4.176L113.086 9.12V21h-4.032V4.056h4.248l10.392 11.832V4.056h4.032V21zm18.275 0h5.688l-9.408-9.792 8.256-7.152h-5.472l-8.256 7.416V4.056h-4.224V21h4.224v-5.088l2.568-2.208L146.001 21z" fill="#fff"/></svg>